Patient5_TMGait_0pt45_1_right_07_EMG.mot
version=1
nRows=29
nColumns=33
inDegrees=no
endheader
time	1LAddLong	2LGlutMax	3LGlutMed	4LIliopsoas	5LSemiMemb	6LBicFemLong	7LRecFem	8LTensFascLat	9LVastMed	10LVasLat	11LGasMed	12lGasLat	13LTibAnt	14LPeroneusLong	15LSol	16LTibPost	17RAddLong	18RGlutMax	19RGlutMed	20RIliopsoas	21RSemiMemb	22RBicFemLong	23RRecFem	24RTensFascLat	25RVastMed	26RVasLat	27RGasMed	28RGasLat	29RTibAnt	30RPeroneusLong	31RSol	32RTibPost
12.948	-0.1004	0.00351	0.093689	0.017548	0.022583	-0.12772	0.027161	-0.19226	-0.023956	-0.02243	-0.060883	0.015869	0.012512	0.006409	-0.041199	0.14343	-0.009003	-0.003052	0.037384	-0.059662	-0.055084	-0.007477	-0.001831	0.13107	-0.000153	0.000916	0.005035	-0.027161	-0.058746	-0.037689	-0.020447	0
12.949	-0.061035	0.0177	-0.071716	0.024109	0.022125	-0.24628	0.032501	-0.2034	-0.052185	-0.021667	-0.10712	0.02533	0.018616	0.007629	-0.024567	0.056	-0.005341	-0.007782	0.059509	-0.087128	-0.063477	-0.011597	-0.001068	0.15915	0.004883	-0.005493	0.006714	-0.020752	-0.060272	-0.056915	-0.001221	-0.003967
12.95	-0.05127	0.033112	-0.055389	0.031586	0.005798	-0.23529	0.022736	-0.1384	-0.075378	-0.010986	-0.049591	-0.011292	0.0177	-0.00885	0.030212	-0.089874	-0.007477	0.002899	0.064697	0.042419	-0.046387	-0.002441	-0.006256	0.15655	-0.002289	-0.00824	-0.01297	0.004883	-0.041504	-0.026855	0.010834	-0.006866
12.951	-0.037689	0.02655	-0.009918	0.024567	0.003815	-0.16113	0.009308	-0.14816	-0.092773	-0.007629	0.10666	-0.014343	0.0354	0.016785	-0.047302	-0.023499	-0.002747	-0.00473	0.04303	0.026245	-0.02655	-0.008698	-0.000916	0.11993	0.000305	-0.000763	-0.026245	-0.009003	-0.016327	-0.011444	0.009155	-0.002136
12.952	-0.10513	0.015259	0.06424	0.004883	-0.00824	-0.19806	0.005646	0.066071	-0.089569	-0.011902	-0.049286	-0.016632	0.023956	0.049133	-0.13672	0.017395	-0.007782	-0.002136	0.018616	0.009155	-0.03006	-0.009003	-0.002289	0.070648	0.001373	-0.008087	-0.024414	-0.025482	0.034027	0.013123	-0.000153	-0.001984
12.953	-0.062103	0.011139	0.077972	0.002594	-0.012512	-0.13031	-0.001526	0.12176	-0.076141	-0.032043	-0.24811	0.000305	0.014954	0.063171	-0.024414	-0.000153	-0.008087	-0.002289	0.043945	-0.069275	-0.010376	0.002136	-0.00061	0.06546	0.000153	-0.007172	-0.00824	-0.04303	0.06958	0.027008	-0.009308	0.001373
12.954	-0.050507	0.000153	-0.003662	-0.007019	0.005951	-0.007782	0.000305	-0.002899	-0.054626	-0.043793	-0.20279	0.025177	0.007477	0.049438	-0.003357	0.090179	-0.006409	-0.002747	0.055237	0.028992	0.019073	-0.005341	-0.007477	0.023499	0.000305	-0.005493	-0.002594	-0.036621	0.064697	0.012512	-0.012665	-0.00061
12.955	-0.024109	-0.013428	-0.017548	-0.018616	0.005646	0.05188	-0.013123	-0.016022	-0.032196	-0.034943	-0.16861	0.030365	0.012054	-0.015411	0.006866	0.091248	-0.006561	-0.000153	0.082245	0.005188	-0.000916	0.000458	-0.005493	0.019073	0.008698	-0.005341	0.00061	-0.018463	0.035248	0.015411	-0.001068	-0.012817
12.956	-0.025635	-0.013275	0.010529	-0.002136	0.00473	0.01297	-0.004425	0.089111	-0.000458	-0.031586	-0.17624	0.001831	0.027313	-0.085907	0.041656	0.16373	-0.007935	-0.006561	0.011902	0.02121	0.006866	-0.001373	-0.003815	0.027466	0.004578	-0.002441	-0.002747	-0.010681	0.022736	0.01297	0.005493	-0.013733
12.957	-0.020752	-0.006104	-0.028076	0.005035	-0.001831	-0.00885	0.003815	0.10742	0.033417	-0.006714	0.057068	0.026245	0.030518	-0.083618	0.032806	0.10147	-0.003357	-0.002136	-0.01236	0.01358	0.007477	-0.002441	-0.005493	-0.006256	0.006409	-0.001068	-0.006866	0.001678	0.000153	-0.011597	-0.003052	0.004883
12.958	-0.013733	-0.004425	-0.003967	0.017853	0.009918	0.061188	-0.001831	0.10742	0.04776	0.015411	0.20721	0.049744	0.024261	-0.024719	0.019226	0.073395	-0.005646	-0.004578	0.001831	0.013123	0.023346	-0.000763	-0.002899	0.005341	0.003662	-0.009003	-0.00946	0.010529	-0.003357	0.01236	-0.007019	-0.00351
12.959	-0.001831	0	0.007629	0.005035	0.016174	0.073395	0.005646	0.12665	0.059814	0.015564	0.087891	0.061035	0.016327	-0.012054	0.00412	-0.11627	-0.007782	-0.005646	0.028381	0.018616	0.024567	0.001831	-0.002899	0.005798	0.002594	-0.002594	-0.006104	0	0.009613	0.024261	-0.012817	0.001984
12.96	0.002441	0.002441	0.002747	-0.005646	0.018158	0.066071	0.015106	0.054626	0.054626	0.031738	-0.033569	0.049896	-0.000763	-0.011292	-0.081787	-0.006866	-0.010681	-0.007477	0.025024	0.01709	0.027466	-0.003967	-0.005341	-0.00473	0.001526	0.00412	-0.004883	-0.019684	0.002899	0.004272	-0.013123	0.000916
12.961	0.036926	0.005341	-0.021362	-0.010986	0.002289	-0.000458	0.014801	0.005951	0.043182	0.041656	0.086823	0.049591	-0.002899	0.00351	-0.031281	0.18646	-0.027313	-0.004425	0.00061	-0.055389	0.026245	-0.000305	-0.000153	-0.014801	0.005951	-0.00061	-0.002136	-0.010071	-0.001831	-0.0177	-0.006866	-0.002594
12.962	0.052948	-0.001068	0.00061	-0.03952	0.016632	-0.080872	0.010376	0.011139	0.028229	0.037079	-0.018005	0.020599	-0.00061	0.002136	0.015869	-0.10666	-0.021515	-0.00473	-0.009308	-0.017548	0.026703	-0.005188	-0.003357	-0.005188	-0.001068	-0.001678	0.011292	-0.011597	-0.013885	-0.008087	-0.001526	-0.007629
12.963	0.068054	-0.010223	0.016632	-0.02533	-0.000153	-0.095215	0.010681	0.013275	0.013885	0.033264	0.016785	-0.06958	0.01236	-0.005188	0.041504	0.013885	-0.016937	-0.002441	0.002899	0.027618	0.011139	0.008698	-0.007477	-0.012512	0.003204	-0.010376	-0.000763	-0.01358	-0.010071	-0.024567	-0.006561	-0.002136
12.964	0.042267	0.001068	0.044556	-0.002594	-0.003967	0.010529	0.012207	0.051117	0.004578	0.024414	0.037231	-0.075073	0.005493	0.001373	0.055542	-0.053711	-0.00946	-0.002594	0.050049	0.098419	0.022125	0	-0.008698	-0.050964	0.001678	-0.009308	-0.000916	-0.002441	-0.008087	-0.019073	0.005341	0.000458
12.965	0.041962	0.002289	0.02655	0.003204	-0.000153	0.07782	0.009918	0.036774	-0.008545	0.016479	-0.002594	0.008392	-0.004425	-0.010071	-0.018463	0.065613	-0.002899	-0.003815	0.007935	-0.15106	0.024719	-0.003357	-0.008545	-0.068512	0.010071	-0.00473	-0.000305	-0.007172	0.00412	-0.012054	-0.009003	-0.003357
12.966	-0.001373	-0.003357	0.041199	0.007477	0.011597	0.090637	-0.004578	0.006714	-0.025177	0.00885	0.034637	0.045776	-0.00885	-0.035095	-0.04425	0.050049	0.001831	-0.003815	-0.022125	0.018768	0.012054	-0.012207	-0.010376	-0.068054	0.013733	-0.007019	-0.001678	-0.011902	-0.001678	0.000153	-0.022278	-0.002747
12.967	-0.83618	-0.006866	0.045776	0.013885	0.008392	0.14023	-0.005951	-0.031586	-0.035095	-0.016937	0.13428	0.095825	-0.021362	-0.01358	0.11948	-0.032654	0.006104	-0.002594	0.051117	0.087738	0.023651	-0.001831	-0.000916	-0.058899	0.011444	-0.006104	0.001984	0.005035	-0.005341	0.006714	-0.027313	0.004578
12.968	-0.36682	0.00061	0	0.00946	0.016632	0.058136	0.00351	-0.065613	-0.035095	-0.022278	0.063934	0.058899	-0.011292	0.016327	0.19028	-0.11383	0.010834	-0.002899	0.052795	0.018311	0.029449	-0.003357	0.009613	-0.049133	0.014801	-0.007019	-0.005188	0.006104	-0.006256	0.015259	-0.002289	0.000458
12.969	-0.1738	-0.000153	-0.06546	0.00824	0.024567	0.00946	-0.003815	-0.11551	-0.02594	-0.014343	0.017853	-0.034027	0.01358	-0.011444	0.070496	-0.10391	0.016937	-0.006256	0.098419	-0.053101	0.045319	-0.003052	0.013428	-0.050049	0.007019	-0.005493	-0.006256	0.009308	-0.011444	0.013428	0.016785	-0.000153
12.97	-0.27512	-0.002594	-0.016632	0.02182	0.031433	-0.091705	-0.005646	-0.036316	-0.022888	-0.010376	-0.037537	-0.071716	0.016479	-0.010376	-0.000305	-0.047607	0.01297	-0.002136	0.11032	0.11337	0.039215	-0.002136	0.006104	-0.048523	0.009308	-0.001526	-0.006256	0.00473	-0.009308	0.013428	0.010071	-0.008545
12.971	-0.15442	-0.002136	0.033875	0.017242	0.029755	-0.17456	-0.001373	-0.036774	0.024719	-0.027466	-0.041809	-0.04715	0.010376	-0.017548	-0.028534	-0.11032	0.009308	-0.003662	0.060883	-0.05661	0.044098	-0.001068	0.002136	-0.025482	0.007172	-0.002289	-0.006104	-0.001984	-0.007019	0.017853	0.002136	-0.015411
12.972	-0.011749	-0.000458	-0.010376	0.014648	0.019226	-0.18631	-0.008392	-0.088959	0.049744	-0.03479	0.11368	-0.042114	0.028076	-0.032349	0.030975	-0.057373	0.014954	-0.005188	0.029144	-0.078278	0.047302	-0.000153	-0.007935	-0.044861	0.001068	-0.003967	-0.002899	-0.005035	-0.006409	-0.010376	0.000305	-0.003357
12.973	0.070648	0.003662	-0.084076	0.011139	-0.021667	-0.13382	-0.003204	-0.18097	0.044556	-0.016022	0.033875	-0.021973	0.019379	-0.006409	0.051727	0.17563	0.01236	-0.010681	0.054779	-0.059357	0.033722	-0.003967	-0.001984	-0.030365	0.007172	-0.002136	0.003204	-0.01236	-0.009613	-0.021362	0.001068	-0.011902
12.974	0.11887	0.001373	-0.049591	0.019836	-0.0177	-0.019989	-0.005646	-0.18326	0.045929	-0.027161	0.016479	0.004272	0.009766	0.034943	0.001373	0.1033	0.014343	-0.001984	0.025635	0.13275	0.041351	0.003204	-0.003357	-0.019379	0.007629	0.001068	0.007629	0.001526	0.00061	-0.009613	-0.001068	-0.007477
12.975	0.091553	-0.002289	0.045624	0.013733	-0.003204	0.12634	-0.004272	-0.042267	0.034027	-0.029755	0.055389	0.001678	-0.005493	0.034332	-0.017548	-0.045166	0.014038	-0.001373	0.037384	-0.004272	0.044556	-0.001221	0.004425	0.002747	-0.002594	-0.003204	0.007629	0.015869	0.001373	-0.00061	-0.003204	0
12.976	0.13214	0.003052	-0.064697	0.013428	0.010986	0.24674	-0.002289	-0.083923	0.027771	-0.032196	0.063782	-0.014801	-0.000458	0.017853	0.019989	0.037994	0.006714	-0.003204	0.012665	-0.16449	0.064392	0.000763	0.005493	0.009613	0.002289	0.000458	-0.000763	0.016022	-0.021515	-0.002289	-0.021362	-0.008698
